<svg width="342" height="217" viewBox="0 0 342 217" fill="none" xmlns="http://www.w3.org/2000/svg">
<g clip-path="url(#clip0_1_252)">
<rect x="0.232666" y="0.521606" width="341.233" height="215.626" rx="10.4673" fill="#002ABE"/>
<path d="M28.4777 127.423C27.3874 127.423 26.4115 127.219 25.5502 126.81C24.6888 126.396 24.0046 125.829 23.4976 125.109C22.996 124.389 22.7289 123.566 22.6962 122.639H25.6401C25.6946 123.326 25.9917 123.888 26.5315 124.324C27.0712 124.755 27.7199 124.97 28.4777 124.97C29.072 124.97 29.6008 124.834 30.0642 124.561C30.5276 124.288 30.8928 123.91 31.16 123.424C31.4271 122.939 31.5579 122.386 31.5525 121.764C31.5579 121.132 31.4244 120.57 31.1518 120.08C30.8792 119.589 30.5058 119.205 30.0315 118.927C29.5572 118.643 29.012 118.501 28.3959 118.501C27.8944 118.496 27.401 118.589 26.9158 118.78C26.4306 118.97 26.0463 119.221 25.7628 119.532L23.0233 119.082L23.8983 110.447H33.6132V112.982H26.4088L25.9263 117.422H26.0245C26.3352 117.057 26.7741 116.754 27.341 116.514C27.908 116.269 28.5295 116.146 29.2055 116.146C30.2195 116.146 31.1245 116.386 31.9205 116.866C32.7164 117.34 33.3434 117.994 33.8013 118.829C34.2592 119.663 34.4882 120.617 34.4882 121.691C34.4882 122.797 34.232 123.784 33.7195 124.651C33.2125 125.512 32.5065 126.191 31.6015 126.687C30.702 127.178 29.6607 127.423 28.4777 127.423ZM43.1809 127.423C41.9652 127.423 40.8858 127.219 39.9426 126.81C39.0049 126.401 38.269 125.842 37.7347 125.133C37.2059 124.419 36.9442 123.61 36.9497 122.705C36.9442 122.001 37.0969 121.355 37.4076 120.767C37.7183 120.178 38.1381 119.687 38.6669 119.295C39.2012 118.897 39.7954 118.643 40.4496 118.534V118.42C39.5883 118.229 38.8905 117.79 38.3562 117.103C37.8274 116.411 37.5657 115.612 37.5712 114.707C37.5657 113.846 37.8056 113.077 38.2908 112.401C38.776 111.725 39.4411 111.193 40.2861 110.806C41.1311 110.414 42.0961 110.218 43.1809 110.218C44.2549 110.218 45.2117 110.414 46.0513 110.806C46.8963 111.193 47.5614 111.725 48.0466 112.401C48.5372 113.077 48.7826 113.846 48.7826 114.707C48.7826 115.612 48.5127 116.411 47.973 117.103C47.4387 117.79 46.7491 118.229 45.9041 118.42V118.534C46.5583 118.643 47.1471 118.897 47.6704 119.295C48.1992 119.687 48.619 120.178 48.9298 120.767C49.246 121.355 49.4041 122.001 49.4041 122.705C49.4041 123.61 49.1369 124.419 48.6027 125.133C48.0684 125.842 47.3324 126.401 46.3947 126.81C45.4625 127.219 44.3912 127.423 43.1809 127.423ZM43.1809 125.084C43.8079 125.084 44.3531 124.978 44.8165 124.765C45.2799 124.547 45.6397 124.242 45.8959 123.85C46.1521 123.457 46.283 123.005 46.2884 122.492C46.283 121.958 46.1439 121.486 45.8714 121.077C45.6042 120.663 45.2362 120.339 44.7674 120.104C44.304 119.87 43.7752 119.753 43.1809 119.753C42.5813 119.753 42.047 119.87 41.5781 120.104C41.1093 120.339 40.7386 120.663 40.466 121.077C40.1989 121.486 40.068 121.958 40.0735 122.492C40.068 123.005 40.1934 123.457 40.4496 123.85C40.7059 124.237 41.0657 124.539 41.5291 124.757C41.9979 124.975 42.5486 125.084 43.1809 125.084ZM43.1809 117.455C43.6934 117.455 44.1459 117.351 44.5384 117.144C44.9364 116.937 45.2499 116.648 45.4788 116.277C45.7078 115.906 45.825 115.479 45.8305 114.993C45.825 114.514 45.7105 114.094 45.487 113.734C45.2635 113.369 44.9527 113.088 44.5548 112.892C44.1568 112.69 43.6989 112.589 43.1809 112.589C42.6521 112.589 42.186 112.69 41.7826 112.892C41.3846 113.088 41.0739 113.369 40.8503 113.734C40.6323 114.094 40.526 114.514 40.5314 114.993C40.526 115.479 40.635 115.906 40.8585 116.277C41.0875 116.642 41.401 116.931 41.7989 117.144C42.2024 117.351 42.663 117.455 43.1809 117.455ZM52.7057 127.194L59.8284 113.096V112.982H51.5609V110.447H62.9686V113.039L55.8541 127.194H52.7057ZM71.1972 110.218C71.9986 110.223 72.7782 110.365 73.536 110.643C74.2992 110.915 74.9862 111.362 75.5967 111.984C76.2073 112.6 76.6925 113.426 77.0523 114.462C77.4122 115.498 77.5921 116.779 77.5921 118.305C77.5975 119.744 77.4449 121.031 77.1341 122.165C76.8288 123.294 76.39 124.248 75.8175 125.027C75.2451 125.807 74.5555 126.401 73.7486 126.81C72.9418 127.219 72.0341 127.423 71.0255 127.423C69.9679 127.423 69.0302 127.216 68.2124 126.802C67.4001 126.387 66.7432 125.82 66.2416 125.101C65.7401 124.381 65.4321 123.558 65.3176 122.631H68.3024C68.455 123.296 68.7658 123.825 69.2346 124.218C69.7089 124.605 70.3059 124.798 71.0255 124.798C72.1867 124.798 73.0808 124.294 73.7077 123.285C74.3347 122.277 74.6481 120.876 74.6481 119.082H74.5337C74.2665 119.562 73.9203 119.976 73.4951 120.325C73.0699 120.669 72.5874 120.933 72.0477 121.118C71.5134 121.304 70.9464 121.396 70.3468 121.396C69.3655 121.396 68.4823 121.162 67.6972 120.693C66.9176 120.224 66.2989 119.581 65.8409 118.763C65.3884 117.945 65.1595 117.01 65.154 115.958C65.154 114.868 65.4048 113.889 65.9063 113.023C66.4134 112.15 67.1194 111.463 68.0243 110.962C68.9293 110.455 69.9869 110.207 71.1972 110.218ZM71.2054 112.671C70.6166 112.671 70.0851 112.815 69.6108 113.104C69.1419 113.388 68.7712 113.775 68.4986 114.266C68.2315 114.751 68.0979 115.293 68.0979 115.893C68.1034 116.487 68.2369 117.027 68.4986 117.512C68.7658 117.997 69.1283 118.382 69.5862 118.665C70.0496 118.949 70.5785 119.09 71.1727 119.09C71.6143 119.09 72.0259 119.006 72.4075 118.837C72.7891 118.668 73.1217 118.433 73.4052 118.133C73.6941 117.828 73.9176 117.482 74.0757 117.095C74.2393 116.708 74.3183 116.299 74.3129 115.868C74.3129 115.296 74.1766 114.767 73.904 114.282C73.6369 113.797 73.2689 113.407 72.8 113.112C72.3366 112.818 71.8051 112.671 71.2054 112.671ZM86.2684 127.423C85.0527 127.423 83.9733 127.219 83.0301 126.81C82.0924 126.401 81.3565 125.842 80.8222 125.133C80.2934 124.419 80.0317 123.61 80.0372 122.705C80.0317 122.001 80.1843 121.355 80.4951 120.767C80.8058 120.178 81.2256 119.687 81.7544 119.295C82.2887 118.897 82.8829 118.643 83.5371 118.534V118.42C82.6758 118.229 81.978 117.79 81.4437 117.103C80.9149 116.411 80.6532 115.612 80.6586 114.707C80.6532 113.846 80.8931 113.077 81.3783 112.401C81.8635 111.725 82.5286 111.193 83.3736 110.806C84.2186 110.414 85.1836 110.218 86.2684 110.218C87.3424 110.218 88.2992 110.414 89.1388 110.806C89.9838 111.193 90.6489 111.725 91.1341 112.401C91.6247 113.077 91.8701 113.846 91.8701 114.707C91.8701 115.612 91.6002 116.411 91.0605 117.103C90.5262 117.79 89.8366 118.229 88.9916 118.42V118.534C89.6458 118.643 90.2346 118.897 90.7579 119.295C91.2867 119.687 91.7065 120.178 92.0173 120.767C92.3335 121.355 92.4916 122.001 92.4916 122.705C92.4916 123.61 92.2244 124.419 91.6902 125.133C91.1559 125.842 90.4199 126.401 89.4822 126.81C88.55 127.219 87.4787 127.423 86.2684 127.423ZM86.2684 125.084C86.8954 125.084 87.4406 124.978 87.904 124.765C88.3673 124.547 88.7272 124.242 88.9834 123.85C89.2396 123.457 89.3705 123.005 89.3759 122.492C89.3705 121.958 89.2314 121.486 88.9589 121.077C88.6917 120.663 88.3237 120.339 87.8549 120.104C87.3915 119.87 86.8627 119.753 86.2684 119.753C85.6688 119.753 85.1345 119.87 84.6656 120.104C84.1968 120.339 83.8261 120.663 83.5535 121.077C83.2864 121.486 83.1555 121.958 83.161 122.492C83.1555 123.005 83.2809 123.457 83.5371 123.85C83.7934 124.237 84.1532 124.539 84.6166 124.757C85.0854 124.975 85.636 125.084 86.2684 125.084ZM86.2684 117.455C86.7809 117.455 87.2334 117.351 87.6259 117.144C88.0239 116.937 88.3374 116.648 88.5663 116.277C88.7953 115.906 88.9125 115.479 88.918 114.993C88.9125 114.514 88.798 114.094 88.5745 113.734C88.351 113.369 88.0402 113.088 87.6423 112.892C87.2443 112.69 86.7864 112.589 86.2684 112.589C85.7396 112.589 85.2735 112.69 84.8701 112.892C84.4721 113.088 84.1614 113.369 83.9378 113.734C83.7198 114.094 83.6135 114.514 83.6189 114.993C83.6135 115.479 83.7225 115.906 83.946 116.277C84.175 116.642 84.4885 116.931 84.8864 117.144C85.2899 117.351 85.7505 117.455 86.2684 117.455ZM94.8774 124.087V121.674L101.984 110.447H103.995V113.881H102.769L97.9848 121.462V121.593H107.904V124.087H94.8774ZM102.867 127.194V123.351L102.9 122.271V110.447H105.762V127.194H102.867ZM110.214 124.087V121.674L117.321 110.447H119.332V113.881H118.106L113.322 121.462V121.593H123.241V124.087H110.214ZM118.204 127.194V123.351L118.237 122.271V110.447H121.099V127.194H118.204ZM131.807 127.423C130.591 127.423 129.512 127.219 128.569 126.81C127.631 126.401 126.895 125.842 126.361 125.133C125.832 124.419 125.57 123.61 125.576 122.705C125.57 122.001 125.723 121.355 126.034 120.767C126.345 120.178 126.764 119.687 127.293 119.295C127.827 118.897 128.422 118.643 129.076 118.534V118.42C128.214 118.229 127.517 117.79 126.982 117.103C126.454 116.411 126.192 115.612 126.197 114.707C126.192 113.846 126.432 113.077 126.917 112.401C127.402 111.725 128.067 111.193 128.912 110.806C129.757 110.414 130.722 110.218 131.807 110.218C132.881 110.218 133.838 110.414 134.677 110.806C135.522 111.193 136.188 111.725 136.673 112.401C137.163 113.077 137.409 113.846 137.409 114.707C137.409 115.612 137.139 116.411 136.599 117.103C136.065 117.79 135.375 118.229 134.53 118.42V118.534C135.184 118.643 135.773 118.897 136.297 119.295C136.825 119.687 137.245 120.178 137.556 120.767C137.872 121.355 138.03 122.001 138.03 122.705C138.03 123.61 137.763 124.419 137.229 125.133C136.695 125.842 135.959 126.401 135.021 126.81C134.089 127.219 133.017 127.423 131.807 127.423ZM131.807 125.084C132.434 125.084 132.979 124.978 133.443 124.765C133.906 124.547 134.266 124.242 134.522 123.85C134.778 123.457 134.909 123.005 134.915 122.492C134.909 121.958 134.77 121.486 134.498 121.077C134.23 120.663 133.862 120.339 133.394 120.104C132.93 119.87 132.401 119.753 131.807 119.753C131.207 119.753 130.673 119.87 130.204 120.104C129.736 120.339 129.365 120.663 129.092 121.077C128.825 121.486 128.694 121.958 128.7 122.492C128.694 123.005 128.82 123.457 129.076 123.85C129.332 124.237 129.692 124.539 130.155 124.757C130.624 124.975 131.175 125.084 131.807 125.084ZM131.807 117.455C132.32 117.455 132.772 117.351 133.165 117.144C133.563 116.937 133.876 116.648 134.105 116.277C134.334 115.906 134.451 115.479 134.457 114.993C134.451 114.514 134.337 114.094 134.113 113.734C133.89 113.369 133.579 113.088 133.181 112.892C132.783 112.69 132.325 112.589 131.807 112.589C131.278 112.589 130.812 112.69 130.409 112.892C130.011 113.088 129.7 113.369 129.477 113.734C129.258 114.094 129.152 114.514 129.158 114.993C129.152 115.479 129.261 115.906 129.485 116.277C129.714 116.642 130.027 116.931 130.425 117.144C130.829 117.351 131.289 117.455 131.807 117.455Z" fill="white"/>
<path d="M28.4777 155.161C27.3874 155.161 26.4115 154.957 25.5502 154.548C24.6888 154.134 24.0046 153.567 23.4976 152.847C22.996 152.128 22.7289 151.304 22.6962 150.378H25.6401C25.6946 151.064 25.9917 151.626 26.5315 152.062C27.0712 152.493 27.7199 152.708 28.4777 152.708C29.072 152.708 29.6008 152.572 30.0642 152.299C30.5276 152.027 30.8928 151.648 31.16 151.163C31.4271 150.677 31.5579 150.124 31.5525 149.503C31.5579 148.87 31.4244 148.309 31.1518 147.818C30.8792 147.327 30.5058 146.943 30.0315 146.665C29.5572 146.381 29.012 146.24 28.3959 146.24C27.8944 146.234 27.401 146.327 26.9158 146.518C26.4306 146.709 26.0463 146.959 25.7628 147.27L23.0233 146.82L23.8983 138.185H33.6132V140.72H26.4088L25.9263 145.16H26.0245C26.3352 144.795 26.7741 144.492 27.341 144.253C27.908 144.007 28.5295 143.885 29.2055 143.885C30.2195 143.885 31.1245 144.124 31.9205 144.604C32.7164 145.078 33.3434 145.733 33.8013 146.567C34.2592 147.401 34.4882 148.355 34.4882 149.429C34.4882 150.536 34.232 151.522 33.7195 152.389C33.2125 153.251 32.5065 153.929 31.6015 154.425C30.702 154.916 29.6607 155.161 28.4777 155.161ZM36.9251 151.825V149.413L44.0314 138.185H46.0431V141.619H44.8165L40.0326 149.2V149.331H49.952V151.825H36.9251ZM44.9146 154.932V151.089L44.9473 150.01V138.185H47.8094V154.932H44.9146ZM56.3345 147.605L56.5226 144.293L53.7422 146.117L52.7446 144.383L55.713 142.895L52.7446 141.407L53.7422 139.673L56.5226 141.497L56.3345 138.185H58.3217L58.1418 141.497L60.9221 139.673L61.9198 141.407L58.9432 142.895L61.9198 144.383L60.9221 146.117L58.1418 144.293L58.3217 147.605H56.3345ZM68.838 147.605L69.0261 144.293L66.2457 146.117L65.2481 144.383L68.2165 142.895L65.2481 141.407L66.2457 139.673L69.0261 141.497L68.838 138.185H70.8251L70.6452 141.497L73.4256 139.673L74.4233 141.407L71.4466 142.895L74.4233 144.383L73.4256 146.117L70.6452 144.293L70.8251 147.605H68.838ZM81.3415 147.605L81.5296 144.293L78.7492 146.117L77.7515 144.383L80.72 142.895L77.7515 141.407L78.7492 139.673L81.5296 141.497L81.3415 138.185H83.3286L83.1487 141.497L85.9291 139.673L86.9267 141.407L83.9501 142.895L86.9267 144.383L85.9291 146.117L83.1487 144.293L83.3286 147.605H81.3415ZM93.8449 147.605L94.033 144.293L91.2527 146.117L90.255 144.383L93.2234 142.895L90.255 141.407L91.2527 139.673L94.033 141.497L93.8449 138.185H95.8321L95.6522 141.497L98.4325 139.673L99.4302 141.407L96.4536 142.895L99.4302 144.383L98.4325 146.117L95.6522 144.293L95.8321 147.605H93.8449ZM106.348 147.605L106.536 144.293L103.756 146.117L102.758 144.383L105.727 142.895L102.758 141.407L103.756 139.673L106.536 141.497L106.348 138.185H108.336L108.156 141.497L110.936 139.673L111.934 141.407L108.957 142.895L111.934 144.383L110.936 146.117L108.156 144.293L108.336 147.605H106.348ZM118.852 147.605L119.04 144.293L116.26 146.117L115.262 144.383L118.23 142.895L115.262 141.407L116.26 139.673L119.04 141.497L118.852 138.185H120.839L120.659 141.497L123.439 139.673L124.437 141.407L121.461 142.895L124.437 144.383L123.439 146.117L120.659 144.293L120.839 147.605H118.852ZM131.355 147.605L131.543 144.293L128.763 146.117L127.765 144.383L130.734 142.895L127.765 141.407L128.763 139.673L131.543 141.497L131.355 138.185H133.342L133.163 141.497L135.943 139.673L136.941 141.407L133.964 142.895L136.941 144.383L135.943 146.117L133.163 144.293L133.342 147.605H131.355Z" fill="white"/>
<path d="M25.7044 192.177C24.9087 192.177 24.2258 191.976 23.6556 191.573C23.0886 191.167 22.6521 190.582 22.346 189.819C22.0432 189.052 21.8918 188.129 21.8918 187.05C21.895 185.971 22.0481 185.053 22.3509 184.296C22.6569 183.535 23.0934 182.955 23.6604 182.556C24.2306 182.157 24.9119 181.957 25.7044 181.957C26.4969 181.957 27.1782 182.157 27.7484 182.556C28.3186 182.955 28.7551 183.535 29.058 184.296C29.364 185.056 29.517 185.974 29.517 187.05C29.517 188.132 29.364 189.057 29.058 189.824C28.7551 190.587 28.3186 191.17 27.7484 191.573C27.1815 191.976 26.5001 192.177 25.7044 192.177ZM25.7044 190.664C26.3229 190.664 26.811 190.36 27.1686 189.751C27.5294 189.139 27.7098 188.239 27.7098 187.05C27.7098 186.264 27.6276 185.603 27.4633 185.069C27.299 184.534 27.0671 184.131 26.7675 183.861C26.4679 183.587 26.1135 183.45 25.7044 183.45C25.0891 183.45 24.6027 183.756 24.2451 184.368C23.8875 184.977 23.7071 185.871 23.7039 187.05C23.7007 187.839 23.7796 188.503 23.9407 189.041C24.105 189.579 24.3369 189.985 24.6365 190.258C24.9361 190.529 25.2921 190.664 25.7044 190.664ZM34.6403 192.124C33.922 192.124 33.2841 192.003 32.7268 191.761C32.1727 191.52 31.7378 191.189 31.4221 190.771C31.1096 190.349 30.955 189.87 30.9582 189.336C30.955 188.92 31.0452 188.538 31.2288 188.19C31.4124 187.842 31.6605 187.552 31.973 187.321C32.2887 187.085 32.6398 186.936 33.0264 186.871V186.803C32.5174 186.691 32.105 186.431 31.7893 186.025C31.4769 185.616 31.3222 185.144 31.3255 184.61C31.3222 184.101 31.464 183.646 31.7507 183.247C32.0374 182.848 32.4304 182.533 32.9297 182.305C33.4291 182.073 33.9993 181.957 34.6403 181.957C35.275 181.957 35.8403 182.073 36.3364 182.305C36.8358 182.533 37.2288 182.848 37.5155 183.247C37.8054 183.646 37.9504 184.101 37.9504 184.61C37.9504 185.144 37.7909 185.616 37.472 186.025C37.1563 186.431 36.7488 186.691 36.2495 186.803V186.871C36.636 186.936 36.9839 187.085 37.2932 187.321C37.6057 187.552 37.8537 187.842 38.0374 188.19C38.2242 188.538 38.3176 188.92 38.3176 189.336C38.3176 189.87 38.1598 190.349 37.8441 190.771C37.5284 191.189 37.0935 191.52 36.5394 191.761C35.9885 192.003 35.3555 192.124 34.6403 192.124ZM34.6403 190.742C35.0108 190.742 35.333 190.679 35.6068 190.553C35.8806 190.424 36.0932 190.244 36.2446 190.012C36.396 189.78 36.4733 189.513 36.4766 189.21C36.4733 188.894 36.3912 188.616 36.2301 188.374C36.0723 188.129 35.8548 187.937 35.5778 187.799C35.304 187.66 34.9915 187.591 34.6403 187.591C34.286 187.591 33.9703 187.66 33.6932 187.799C33.4162 187.937 33.1971 188.129 33.0361 188.374C32.8782 188.616 32.8009 188.894 32.8041 189.21C32.8009 189.513 32.875 189.78 33.0264 190.012C33.1778 190.241 33.3904 190.42 33.6642 190.548C33.9413 190.677 34.2666 190.742 34.6403 190.742ZM34.6403 186.233C34.9432 186.233 35.2105 186.172 35.4425 186.05C35.6776 185.927 35.8629 185.756 35.9982 185.537C36.1335 185.318 36.2027 185.065 36.206 184.779C36.2027 184.495 36.1351 184.247 36.003 184.035C35.8709 183.819 35.6873 183.653 35.4521 183.537C35.217 183.418 34.9464 183.358 34.6403 183.358C34.3279 183.358 34.0524 183.418 33.814 183.537C33.5789 183.653 33.3952 183.819 33.2632 184.035C33.1343 184.247 33.0715 184.495 33.0747 184.779C33.0715 185.065 33.1359 185.318 33.268 185.537C33.4033 185.753 33.5885 185.924 33.8237 186.05C34.0621 186.172 34.3343 186.233 34.6403 186.233ZM43.9652 181.628L40.776 193.477H39.2442L42.4334 181.628H43.9652ZM45.0622 191.988V190.693L48.4978 187.325C48.8264 186.994 49.1003 186.699 49.3193 186.441C49.5384 186.183 49.7027 185.934 49.8122 185.692C49.9217 185.45 49.9765 185.193 49.9765 184.919C49.9765 184.606 49.9056 184.339 49.7639 184.117C49.6221 183.891 49.4272 183.717 49.1792 183.595C48.9311 183.472 48.6492 183.411 48.3335 183.411C48.0082 183.411 47.7231 183.479 47.4782 183.614C47.2334 183.746 47.0434 183.935 46.9081 184.18C46.776 184.424 46.7099 184.716 46.7099 185.054H45.0042C45.0042 184.426 45.1475 183.88 45.4342 183.416C45.7209 182.952 46.1156 182.593 46.6181 182.339C47.1239 182.084 47.7038 181.957 48.3577 181.957C49.0213 181.957 49.6044 182.081 50.107 182.329C50.6095 182.577 50.9993 182.917 51.2763 183.348C51.5566 183.78 51.6967 184.273 51.6967 184.827C51.6967 185.198 51.6259 185.562 51.4841 185.919C51.3424 186.277 51.0927 186.673 50.7351 187.108C50.3808 187.543 49.8831 188.069 49.242 188.688L47.5362 190.423V190.49H51.8465V191.988H45.0622ZM57.1378 192.124C56.6642 192.12 56.202 192.038 55.7509 191.877C55.2999 191.713 54.894 191.447 54.5332 191.08C54.1724 190.709 53.8857 190.218 53.6731 189.606C53.4605 188.991 53.3558 188.229 53.359 187.321C53.359 186.473 53.4492 185.718 53.6296 185.054C53.81 184.391 54.0693 183.83 54.4076 183.373C54.7459 182.912 55.1534 182.561 55.6301 182.319C56.1101 182.078 56.6465 181.957 57.2393 181.957C57.861 181.957 58.4119 182.079 58.8919 182.324C59.3751 182.569 59.7649 182.904 60.0613 183.329C60.3576 183.751 60.5413 184.228 60.6121 184.759H58.8484C58.7582 184.379 58.5729 184.077 58.2927 183.851C58.0156 183.622 57.6645 183.508 57.2393 183.508C56.5531 183.508 56.0248 183.806 55.6543 184.402C55.2871 184.998 55.1018 185.816 55.0986 186.857H55.1663C55.3241 186.573 55.5287 186.33 55.7799 186.127C56.0312 185.924 56.3147 185.768 56.6304 185.658C56.9493 185.545 57.286 185.489 57.6403 185.489C58.2202 185.489 58.7405 185.628 59.2011 185.905C59.665 186.182 60.0323 186.563 60.3029 187.05C60.5735 187.533 60.7072 188.087 60.7039 188.712C60.7072 189.363 60.559 189.948 60.2594 190.466C59.9598 190.982 59.5426 191.388 59.0078 191.684C58.4731 191.98 57.8497 192.127 57.1378 192.124ZM57.1281 190.674C57.4793 190.674 57.7934 190.589 58.0704 190.418C58.3474 190.247 58.5665 190.017 58.7276 189.727C58.8886 189.437 58.9676 189.112 58.9644 188.751C58.9676 188.396 58.8903 188.076 58.7324 187.789C58.5778 187.503 58.3636 187.275 58.0897 187.108C57.8159 186.94 57.5034 186.857 57.1523 186.857C56.8913 186.857 56.6481 186.907 56.4226 187.006C56.1971 187.106 56.0006 187.245 55.8331 187.422C55.6656 187.596 55.5335 187.799 55.4369 188.031C55.3434 188.26 55.2951 188.504 55.2919 188.765C55.2951 189.11 55.3757 189.427 55.5335 189.717C55.6914 190.007 55.9088 190.239 56.1858 190.413C56.4629 190.587 56.777 190.674 57.1281 190.674Z" fill="white"/>
<path d="M52.5688 37.157C52.5688 34.0517 51.6479 31.0161 49.9227 28.4341C48.1975 25.8521 45.7453 23.8396 42.8764 22.6513C40.0074 21.4629 36.8505 21.152 33.8048 21.7578C30.7591 22.3636 27.9615 23.859 25.7657 26.0548C23.5699 28.2506 22.0745 31.0482 21.4687 34.0939C20.8629 37.1396 21.1738 40.2965 22.3622 43.1655C23.5505 46.0344 25.5629 48.4866 28.1449 50.2118C30.7269 51.9371 33.7625 52.8579 36.8679 52.8579V37.157H52.5688Z" fill="white"/>
<path d="M45.2418 38.2037C43.7927 38.2037 42.376 38.6335 41.1711 39.4386C39.9662 40.2437 39.027 41.388 38.4725 42.7269C37.9179 44.0657 37.7728 45.5389 38.0555 46.9603C38.3382 48.3816 39.0361 49.6871 40.0608 50.7118C41.0855 51.7366 42.3911 52.4344 43.8124 52.7171C45.2337 52.9998 46.7069 52.8547 48.0458 52.3002C49.3846 51.7456 50.529 50.8065 51.3341 49.6015C52.1392 48.3966 52.5689 46.98 52.5689 45.5308H45.2418V38.2037Z" fill="white"/>
<path d="M182.363 -6.2821V22.4374M182.363 223.474V172.374M182.363 108.596L241.073 166.035M182.363 108.596V138.138M182.363 108.596H212.124M182.363 108.596L211.594 82.4479M182.363 108.596V51.157M299.586 108.596H354.549H329.924M299.586 108.596L299.782 139.132M299.586 108.596L329.924 139.132M299.586 108.596L327.166 84.4356M299.586 108.596L299.782 82.4479M299.782 223.474V139.132M299.782 223.474L241.073 166.035M299.782 223.474V195.577M241.884 108.596L270.833 138.138M241.884 108.596L241.073 166.035M241.884 108.596H212.124M241.884 108.596L269.191 82.4479M241.884 108.596H269.249M350.182 219.113L327.679 196.149M299.782 167.68L270.833 138.138M299.782 167.68V139.132M299.782 167.68L327.679 196.149M299.782 167.68V195.577M354.549 162.455L329.924 139.132M182.363 172.374L211.594 200.896M182.363 172.374V167.68V138.138M182.363 172.374L241.073 166.035M234.734 223.474L211.594 200.896M211.594 200.896V223.474M211.594 200.896L269.249 196.149L270.833 138.138M270.833 138.138L299.782 139.132M182.363 138.138H211.594L212.124 108.596M329.924 139.132L327.679 196.149M329.924 139.132H354.549M327.679 196.149L299.782 195.577M327.166 84.4356L354.549 58.2874L353.737 59.1499M327.166 84.4356L299.782 82.4479M327.166 84.4356L329.924 108.596M327.166 84.4356L353.737 59.1499M299.782 82.4479V58.2874V53.1543M329.924 108.596H269.249M299.782 53.1543L331.939 21.8537M299.782 53.1543L350.182 2.82633L331.939 21.8537M299.782 53.1543L269.191 82.4479M299.782 53.1543V23.4361M299.782 53.1543L241.706 52.1508M299.782 53.1543H354.549L353.737 59.1499M331.939 21.8537V-6.2821M331.939 21.8537H354.549M269.191 82.4479L269.249 108.596M269.191 82.4479H211.594M211.594 82.4479L241.706 52.1508M211.594 82.4479L210.732 22.6304M271.818 21.8537L299.782 -6.2821V23.4361M271.818 21.8537L299.782 23.4361M271.818 21.8537L241.706 52.1508M271.818 21.8537V-6.2821M241.706 52.1508L239.101 -5.89615L210.732 22.6304M182.363 51.157V22.4374M182.363 51.157L210.732 22.6304M182.363 22.4374L210.732 22.6304" stroke="#EFFCFF" stroke-width="1.04673"/>
</g>
<defs>
<clipPath id="clip0_1_252">
<rect x="0.232666" y="0.521606" width="341.233" height="215.626" rx="10.4673" fill="white"/>
</clipPath>
</defs>
</svg>
